HIERARCHY
ROOT Hips
{
  OFFSET 3.13124 94.3669 -3.18751
  CHANNELS  6 Xposition Yposition Zposition Zrotation Xrotation Yrotation
  JOINT LeftUpLeg
  {
    OFFSET 8.64259 1.95398 -2.38835
    CHANNELS 3 Zrotation Xrotation Yrotation
    JOINT LeftLeg
    {
      OFFSET 43.7702 0 0
      CHANNELS 3 Zrotation Xrotation Yrotation
      JOINT LeftFoot
      {
        OFFSET 40.6238 0 0
        CHANNELS 3 Zrotation Xrotation Yrotation
        JOINT LeftToeBase
        {
          OFFSET 12.7242 0 0
          CHANNELS 3 Zrotation Xrotation Yrotation
          End Site
          {
            OFFSET 0 0 0
          }
        }
      }
    }
  }
  JOINT RightUpLeg
  {
    OFFSET -8.2249 1.95398 -2.59336
    CHANNELS 3 Zrotation Xrotation Yrotation
    JOINT RightLeg
    {
      OFFSET 43.5653 0 0
      CHANNELS 3 Zrotation Xrotation Yrotation
      JOINT RightFoot
      {
        OFFSET 40.6238 0 0
        CHANNELS 3 Zrotation Xrotation Yrotation
        JOINT RightToeBase
        {
          OFFSET 12.7242 0 0
          CHANNELS 3 Zrotation Xrotation Yrotation
          End Site
          {
            OFFSET 0 0 0
          }
        }
      }
    }
  }
  JOINT Spine
  {
    OFFSET 0.165834 0.87714 6.61349
    CHANNELS 3 Zrotation Xrotation Yrotation
    JOINT Spine1
    {
      OFFSET 7.38962 1.71661e-005 0
      CHANNELS 3 Zrotation Xrotation Yrotation
      JOINT Spine2
      {
        OFFSET 11.9445 1.14441e-005 0
        CHANNELS 3 Zrotation Xrotation Yrotation
        JOINT Spine3
        {
          OFFSET 14.7254 4.19617e-005 0
          CHANNELS 3 Zrotation Xrotation Yrotation
          JOINT Spine4
          {
            OFFSET 10.9679 0 0
            CHANNELS 3 Zrotation Xrotation Yrotation
            JOINT RightShoulder
            {
              OFFSET 2.46616 -1.6653 3.69651
              CHANNELS 3 Zrotation Xrotation Yrotation
              JOINT RightArm
              {
                OFFSET 13.0012 0 0
                CHANNELS 3 Zrotation Xrotation Yrotation
                JOINT RightForeArm
                {
                  OFFSET 28.7848 1.52588e-005 0
                  CHANNELS 3 Zrotation Xrotation Yrotation
                  JOINT RightHand
                  {
                    OFFSET 26.5688 1.52588e-005 0
                    CHANNELS 3 Zrotation Xrotation Yrotation
                    End Site
                    {
                      OFFSET 0 0 0
                    }
                  }
                }
              }
            }
            JOINT LeftShoulder
            {
              OFFSET 2.38034 -1.29275 -3.75231
              CHANNELS 3 Zrotation Xrotation Yrotation
              JOINT LeftArm
              {
                OFFSET 16.3182 6.10352e-005 0
                CHANNELS 3 Zrotation Xrotation Yrotation
                JOINT LeftForeArm
                {
                  OFFSET 27.0901 0 0
                  CHANNELS 3 Zrotation Xrotation Yrotation
                  JOINT LeftHand
                  {
                    OFFSET 24.5451 1.52588e-005 0
                    CHANNELS 3 Zrotation Xrotation Yrotation
                    End Site
                    {
                      OFFSET 0 0 0
                    }
                  }
                }
              }
            }
            JOINT Neck
            {
              OFFSET 5.0226 -0.0266342 0
              CHANNELS 3 Zrotation Xrotation Yrotation
              JOINT Head
              {
                OFFSET 6.69363 2.86102e-005 0
                CHANNELS 3 Zrotation Xrotation Yrotation
                End Site
                {
                  OFFSET 0 0 0
                }
              }
            }
          }
        }
      }
    }
  }
}
MOTION
Frames:	15
Frame Time:	0.0333333
77.5674 93.2621 71.9505 91.5133 56.8945 89.433 178.099 18.4358 88.962 -53.2189 -14.6279 12.7757 43.6347 8.68625 6.46344 28.7808 5.3643e-006 7.53978e-006 -178.295 10.4021 94.0664 -24.8569 42.2743 2.46288 65.7572 -12.9852 -7.11105 28.7808 1.29001e-005 2.61985e-005 -0.360169 6.49805 -89.7464 13.8351 -1.21731 -2.69237 2.16209 -1.33459 -2.63624 -20.3514 -0.352265 -2.93353 -0.338736 -0.352271 -2.93355 86.6572 -57.7535 -103.824 13.6763 23.0563 13.0571 14.3306 17.2747 -49.3023 14.4197 2.11606 11.0128 -110.783 -68.4021 56.8598 -23.086 -13.4269 6.00755 12.8148 8.88244 -51.0276 -5.49469 -0.389663 6.59234 -1.51563 6.28914 10.5519 -19.983 1.95492 18.8278 
78.362 93.2017 71.7163 91.3238 59.3597 89.3728 178.093 21.4008 87.9607 -50.5746 -19.3952 11.1954 46.7694 11.2531 8.26165 28.7808 5.3643e-006 7.53978e-006 -178.191 10.2656 94.2649 -25.5681 45.5131 2.87249 66.0661 -10.7664 -5.8553 28.7808 1.29001e-005 2.61985e-005 -0.361805 6.53855 -89.8507 13.7588 -1.16012 -2.6115 2.08583 -1.27392 -2.55797 -20.4288 -0.321986 -2.83924 -0.4162 -0.322005 -2.83927 85.9828 -57.3389 -104.872 13.0822 23.5613 13.278 15.4672 17.6042 -50.6913 16.0849 2.58124 12.4902 -110.488 -67.96 57.0416 -23.9278 -12.5539 4.6748 14.7156 9.40499 -54.2237 -8.2234 -0.677501 7.07838 -1.88297 6.00862 10.3636 -18.9687 2.23256 16.6587 
79.1902 92.9833 71.4526 90.9832 61.7517 89.7021 178.574 23.7698 87.1848 -47.3655 -19.7948 9.5409 49.2676 13.3844 9.59276 28.7808 5.3643e-006 7.53978e-006 -178.131 10.508 94.7473 -26.9892 48.5474 3.42193 66.6539 -9.1579 -4.94181 28.7808 1.29001e-005 2.61985e-005 -0.330666 6.56784 -90.1319 13.7088 -1.07819 -2.53757 2.03593 -1.1888 -2.48769 -20.4799 -0.266025 -2.74412 -0.467221 -0.266019 -2.74413 85.2968 -57.1616 -105.876 12.8891 23.7975 12.9454 16.5096 18.1593 -51.5037 16.0309 2.66073 13.1461 -110.899 -67.7238 56.459 -24.9469 -11.4276 2.03932 10.4485 5.88521 -54.2442 -5.60416 -0.413251 7.02527 -2.0324 5.76048 10.2847 -18.6542 2.41506 14.23 
80.0472 92.7308 71.0395 90.0161 63.912 90.4591 178.725 25.926 86.4092 -42.608 -23.239 7.47598 50.9435 14.1077 9.8996 28.7808 5.3643e-006 7.53978e-006 -178.122 10.9988 95.0786 -28.6536 51.7404 4.12066 67.1141 -6.19202 -3.3351 28.7808 1.29001e-005 2.61985e-005 -0.286428 6.56629 -90.4149 13.7181 -0.983047 -2.41461 2.04536 -1.08833 -2.36904 -20.4721 -0.212067 -2.59831 -0.459447 -0.21208 -2.59831 84.6917 -57.0467 -106.754 13.295 23.6591 12.5339 14.1387 15.9067 -51.223 15.6827 2.66498 13.523 -111.28 -67.7271 56.0077 -25.4115 -10.7355 -0.220137 5.46146 1.83943 -55.0408 -3.57344 -0.232529 9.18171 -2.10317 5.59105 10.0111 -18.3474 2.62901 12.0914 
80.9331 92.2639 70.4911 89.0922 65.7492 91.41 179.134 27.0504 85.8858 -37.2256 -24.1551 5.40689 52.8303 15.5746 10.6941 28.7808 5.3643e-006 7.53978e-006 -178.243 11.6742 95.5979 -30.9929 53.0641 4.66575 68.5006 -5.85381 -3.12746 28.7808 1.29001e-005 2.61985e-005 -0.200925 6.56515 -90.8346 13.7261 -0.897872 -2.35734 2.05346 -1.00072 -2.31556 -20.4648 -0.149847 -2.51808 -0.452136 -0.149867 -2.5181 84.4221 -56.8876 -107.174 13.7406 23.5349 11.3065 13.9211 15.5933 -51.3862 13.9373 2.44266 14.0707 -111.872 -67.9814 55.4007 -25.0962 -10.8003 -0.857172 2.23573 -0.632347 -56.7554 -4.96875 -0.409207 9.56562 -2.19228 5.62915 10.6086 -18.4414 2.96655 9.56765 
81.8313 91.6801 69.7807 87.831 67.3534 92.8123 179.489 27.5121 85.7136 -30.7834 -27.3104 2.84543 56.137 14.8835 9.6581 28.7808 5.3643e-006 7.53978e-006 -178.427 12.721 96.1345 -34.3523 56.2075 5.68975 68.5679 -3.25117 -1.82301 28.7808 1.29001e-005 2.61985e-005 -0.10217 6.56572 -91.2987 13.7286 -0.856019 -2.22276 2.05604 -0.952997 -2.18296 -20.4639 -0.149205 -2.37718 -0.451279 -0.149218 -2.37719 84.0138 -57.1522 -107.671 14.5431 23.162 9.88708 13.5177 15.1868 -51.3935 13.063 2.21278 13.4219 -111.165 -67.6717 56.1211 -25.0828 -10.6431 -1.22421 1.44902 -1.17939 -58.38 -5.56522 -0.561063 12.4361 -1.81086 5.69735 9.34059 -18.9672 3.19541 8.99532 
82.7994 91.2004 69.0419 86.7551 68.5474 93.8873 179.893 28.0062 85.3165 -24.8872 -28.181 1.20183 55.3888 15.1082 9.92968 28.7808 5.3643e-006 7.53978e-006 -178.338 12.6165 96.8407 -35.5769 57.6352 6.39388 71.3265 -2.60245 -1.5077 28.7808 1.29001e-005 2.61985e-005 -0.00223001 6.58039 -91.5266 13.6995 -0.801694 -2.12935 2.02706 -0.89465 -2.09204 -20.4942 -0.124878 -2.27177 -0.481581 -0.12489 -2.27179 83.7723 -57.6456 -107.861 15.3936 22.7924 8.46636 14.1598 15.4123 -52.1181 12.4096 2.00188 12.5603 -110.399 -67.3819 56.9216 -25.0874 -10.6893 -0.907411 2.86926 -0.221034 -58.1237 -6.15414 -0.58804 10.6095 -1.48767 5.77118 8.63026 -19.4186 3.37084 8.51497 
83.7982 90.9239 68.1406 87.1525 69.4146 93.5582 -179.8 27.6209 84.9064 -18.9809 -29.0015 0.271978 53.544 15.7287 10.6818 28.7808 5.3643e-006 7.53978e-006 -178.248 12.0301 97.34 -36.8289 58.6863 6.83263 71.8569 -1.78632 -1.12899 28.7808 1.29001e-005 2.61985e-005 0.0467251 6.63779 -91.6207 13.5841 -0.783782 -2.11033 1.91173 -0.875912 -2.07382 -20.6098 -0.113472 -2.24821 -0.597155 -0.113493 -2.24823 83.4461 -57.8182 -108.257 16.2664 22.3417 7.16525 14.3217 15.3052 -52.584 12.37 1.95353 12.178 -109.965 -67.3819 57.4456 -24.6317 -11.2471 -0.149895 3.60719 0.29739 -57.7619 -7.10729 -0.700645 10.3079 -1.807 5.94489 8.89377 -19.4074 3.65696 7.76591 
84.7831 90.6913 67.1823 86.8086 70.0036 94.0222 -179.893 27.1223 84.7502 -12.9383 -30.0751 -0.234038 51.7048 15.7024 10.9532 28.7808 5.3643e-006 7.53978e-006 -178.115 11.5804 97.9317 -37.7301 59.4958 7.19269 72.1217 -0.341634 -0.444648 28.7808 1.29001e-005 2.61985e-005 0.0904233 6.65953 -91.6735 13.5401 -0.75935 -2.07014 1.86782 -0.849699 -2.03466 -20.6542 -0.1026 -2.2033 -0.641563 -0.102621 -2.20331 82.7661 -58.3612 -109.028 17.1307 21.8889 6.04122 15.0819 15.4991 -53.5084 12.2847 2.00041 12.6902 -109.358 -67.2983 58.1439 -23.7123 -12.2724 0.997573 3.53361 0.277859 -57.035 -8.29201 -0.881742 10.7598 -2.17139 6.01623 8.40393 -19.4677 3.78077 7.97008 
85.7868 90.5189 66.1851 86.5776 70.2752 94.415 179.687 26.6663 84.7356 -7.69476 -31.1006 0.36738 51.5624 14.131 9.8426 28.7808 5.3643e-006 7.53978e-006 -177.781 11.3578 98.5914 -39.567 62.6166 8.38586 65.2572 20.3171 11.1201 28.7808 1.29001e-005 2.61985e-005 0.168594 6.66172 -91.7694 13.533 -0.709728 -2.0925 1.86065 -0.801121 -2.05927 -20.661 -0.0482054 -2.20738 -0.648336 -0.0482093 -2.20739 82.206 -58.5817 -109.726 18.1582 21.2236 5.2407 17.0976 16.7696 -54.5319 11.3032 1.76358 11.9361 -109.403 -67.5536 58.1853 -22.5642 -13.4684 2.08725 2.62261 -0.327527 -55.3712 -8.14335 -0.936129 12.3288 -2.96883 6.13067 8.92495 -19.3824 3.93592 7.77882 
86.7291 90.3756 65.0019 86.3465 70.605 94.8643 179.117 26.8865 84.5252 -4.86625 -31.8986 1.78575 52.6862 11.4866 7.78819 28.7808 5.3643e-006 7.53978e-006 -177.527 10.0604 99.1501 -38.4241 61.4135 7.90588 66.6497 20.3217 10.7783 28.7808 1.29001e-005 2.61985e-005 0.216247 6.65043 -91.8253 13.5571 -0.679737 -2.18313 1.88456 -0.775149 -2.15111 -20.6359 0.00760857 -2.28644 -0.623239 0.00759452 -2.28645 81.8928 -58.6332 -110.137 19.3164 20.3583 4.75042 18.0632 17.466 -54.8541 10.6591 1.50424 10.3319 -110.024 -68.0596 57.6331 -21.2642 -14.6976 3.32386 2.42189 -0.437005 -52.9027 -7.28465 -0.880728 13.9297 -3.82227 6.22317 10.0957 -19.3612 4.06452 7.20206 
87.6147 90.3318 63.7176 85.8174 70.8523 95.485 178.697 26.7458 84.1736 -2.71089 -31.6512 2.924 51.1057 7.00178 4.6931 28.7808 5.3643e-006 7.53978e-006 -177.272 9.09444 99.59 -38.0947 61.7327 7.87381 65.974 21.3507 11.5305 28.7808 1.29001e-005 2.61985e-005 0.221955 6.61009 -91.7606 13.6354 -0.606933 -2.30996 1.9626 -0.707987 -2.28101 -20.5561 0.115151 -2.38554 -0.543415 0.115132 -2.38555 81.6843 -58.6019 -110.43 20.097 19.7644 4.97451 19.3507 18.3092 -55.3968 10.2647 1.37744 9.57696 -111.219 -68.7646 56.4827 -19.842 -15.8662 4.33828 0.51012 -2.10059 -50.3302 -5.16403 -0.63659 17.7794 -4.57264 6.24661 11.3735 -19.5693 4.08336 6.80314 
88.5956 90.2396 62.2105 85.7382 70.893 95.6338 178.752 25.7876 83.842 -1.88354 -29.6208 3.04876 50.5556 3.09875 1.84785 28.7808 5.3643e-006 7.53978e-006 -176.986 7.80376 99.9772 -37.6743 61.7282 7.76019 65.3934 22.406 12.2839 28.7808 1.29001e-005 2.61985e-005 0.247983 6.5728 -91.696 13.7113 -0.469166 -2.40687 2.03824 -0.574626 -2.38391 -20.4791 0.275658 -2.43664 -0.466421 0.275654 -2.43666 81.4825 -58.7501 -110.659 20.426 19.5206 5.44264 21.8002 19.8598 -56.4454 10.3324 1.48237 10.5723 -112.152 -69.3536 55.6122 -18.4918 -16.8262 5.54875 -0.829367 -3.55489 -47.5131 -2.52503 -0.125881 20.9504 -5.3811 6.20059 12.466 -19.6871 4.05347 6.55441 
89.6632 90.0873 60.4636 85.9986 70.4462 95.4906 179.255 24.4483 83.5779 -2.55866 -25.4828 2.59442 50.5143 1.56813 0.713883 28.7808 5.3643e-006 7.53978e-006 -176.691 6.26555 100.32 -37.183 61.2136 7.52163 64.8175 23.4961 13.07 28.7808 1.29001e-005 2.61985e-005 0.345559 6.53944 -91.6723 13.7772 -0.238218 -2.50915 2.10384 -0.348377 -2.49625 -20.4124 0.526658 -2.46436 -0.399745 0.526644 -2.46436 81.3876 -58.8779 -110.747 20.9095 19.1027 6.02827 22.7965 20.873 -56.381 9.59433 1.3869 10.6271 -112.513 -69.9612 55.428 -17.1068 -17.675 7.30948 -1.23021 -4.21252 -45.2176 -1.23074 0.196616 23.9177 -6.01131 6.27277 13.6999 -19.86 4.13574 6.20566 
90.793 90.0784 58.5955 86.0127 69.5027 95.3272 179.768 23.2401 83.1832 -2.87697 -20.4609 2.93314 48.7823 3.1588 1.88463 28.7808 5.3643e-006 7.53978e-006 -176.318 4.43468 100.308 -35.83 60.4245 7.05304 63.8876 24.2952 13.8199 28.7808 1.29001e-005 2.61985e-005 0.330021 6.48353 -91.3851 13.8989 0.0280153 -2.5774 2.22543 -0.0854113 -2.57619 -20.2907 0.801167 -2.44989 -0.278022 0.801153 -2.44992 81.0337 -58.9936 -111.188 21.3799 18.6895 7.0085 22.2275 20.982 -55.5533 8.93675 1.35749 11.3508 -111.505 -70.5923 56.8505 -15.725 -18.4031 9.56122 -1.93246 -5.21034 -43.5936 -0.53168 0.402329 25.7132 -6.44679 6.48771 14.7399 -20.224 4.32991 6.03291 
